<svg width="79" height="85" viewBox="0 0 79 85" fill="none" xmlns="http://www.w3.org/2000/svg">
<path fill-rule="evenodd" clip-rule="evenodd" d="M39.4301 0.713005C39.4236 0.715124 39.4172 0.717285 39.4107 0.719487C39.3999 0.719379 39.3891 0.719379 39.3783 0.719487C39.1878 0.733122 39.0013 0.780302 38.8273 0.85885L1.36782 16.8791C0.983186 16.9398 0.633273 17.137 0.382117 17.4346C0.130961 17.7322 -0.00464147 18.1102 0.000121328 18.4996V67.1211C-0.00177527 67.3521 0.0457403 67.5808 0.139483 67.792C0.141603 67.7985 0.143765 67.805 0.145967 67.8114C0.159133 67.841 0.173184 67.8702 0.1881 67.8989C0.362236 68.2487 0.65689 68.5238 1.0178 68.6735L38.5064 84.7003C38.8263 84.9308 39.2192 85.0368 39.6116 84.9985C39.8955 84.9835 40.1705 84.894 40.4089 84.7392L77.9851 68.6735C78.2487 68.5663 78.4795 68.3916 78.6542 68.1668C78.8288 67.9421 78.9412 67.6753 78.98 67.3933C78.9852 67.3643 78.9895 67.3351 78.993 67.3058C78.9958 67.28 78.998 67.254 78.9995 67.2281C79.0002 67.201 79.0002 67.174 78.9995 67.147C78.9996 67.1384 78.9996 67.1297 78.9995 67.1211V18.4996C79.0037 18.1151 78.871 17.7417 78.6252 17.446C78.3794 17.1503 78.0365 16.9517 77.6577 16.8856L40.1691 0.85885C40.1361 0.84259 40.1026 0.827456 40.0686 0.813475C40.0643 0.811295 40.06 0.809135 40.0556 0.806994C40.0076 0.792863 39.9589 0.780966 39.9098 0.771342C39.8937 0.76677 39.8775 0.762448 39.8612 0.758378C39.8248 0.748455 39.788 0.739807 39.751 0.732451C39.7348 0.730045 39.7186 0.727884 39.7024 0.725969C39.6668 0.722629 39.6311 0.720468 39.5954 0.719487C39.5405 0.714514 39.4853 0.71235 39.4301 0.713005ZM39.4982 4.09985L47.4419 7.49318L13.7744 21.8929C13.7415 21.907 13.709 21.9221 13.6771 21.9383L5.73021 18.5385L39.5014 4.09985H39.4982ZM51.5644 9.25952L61.2032 13.3788L26.9069 28.0476C26.59 28.1838 26.3249 28.4175 26.15 28.7148C25.9751 29.0121 25.8997 29.3574 25.9346 29.7005C25.9288 29.763 25.9266 29.8258 25.9281 29.8885V47.2278L22.4149 41.9547C22.1959 41.6265 21.8647 41.3895 21.4835 41.288C21.1022 41.1866 20.697 41.2277 20.3439 41.4038L16.2051 43.4715V24.382L51.5644 9.25952ZM65.3257 15.1387L73.2759 18.5385L39.5014 32.9772L31.5577 29.5838L65.2317 15.1841C65.2646 15.17 65.2971 15.1549 65.329 15.1387H65.3257ZM3.24112 20.9952L12.9641 25.1534V46.0935C12.9641 46.3698 13.0348 46.6416 13.1694 46.8829C13.3041 47.1242 13.4982 47.3271 13.7333 47.4723C13.9684 47.6175 14.2368 47.7001 14.5129 47.7123C14.7889 47.7246 15.0635 47.666 15.3106 47.5422L20.5092 44.9397L26.1096 53.3404C26.2874 53.6828 26.5817 53.9506 26.9393 54.0955C26.9871 54.114 27.0358 54.1302 27.0852 54.1441C27.0873 54.1463 27.0895 54.1485 27.0916 54.1506C27.1953 54.1806 27.3017 54.2001 27.4093 54.209C27.4631 54.2138 27.5172 54.216 27.5713 54.2154C27.6254 54.216 27.6795 54.2138 27.7334 54.209C27.7879 54.2009 27.842 54.1901 27.8954 54.1765C27.9281 54.1689 27.9605 54.1603 27.9926 54.1506C28.0111 54.1466 28.0294 54.1423 28.0477 54.1376C28.4102 54.0237 28.721 53.7859 28.926 53.4661C29.131 53.1462 29.217 52.7644 29.1691 52.3875V32.0924L37.8777 35.813V80.9083L3.24112 66.0969V20.9952ZM75.7585 21.0017V66.0969L41.1187 80.9148V35.813L75.7585 21.0017ZM55.4147 58.2472C55.4082 58.2494 55.4018 58.2515 55.3953 58.2537C55.1939 58.2635 54.996 58.3107 54.8119 58.3931L45.3644 62.4314C44.969 62.5998 44.6567 62.9185 44.4963 63.3172C44.3358 63.7159 44.3403 64.1621 44.5088 64.5575C44.6772 64.9529 44.9959 65.2651 45.3946 65.4256C45.7933 65.5861 46.2395 65.5816 46.6349 65.4131L56.0921 61.3748C56.451 61.2346 56.7482 60.9712 56.9304 60.6317C57.1126 60.2922 57.1679 59.8989 57.0863 59.5223C57.0048 59.1458 56.7917 58.8106 56.4854 58.5769C56.179 58.3432 55.7995 58.2264 55.4147 58.2472ZM64.846 60.678C64.6479 60.6889 64.4535 60.7362 64.2724 60.8174L54.8152 64.8556L45.3644 68.9004C44.969 69.0689 44.6567 69.3875 44.4963 69.7862C44.3358 70.185 44.3403 70.6311 44.5088 71.0265C44.6772 71.4219 44.9959 71.7342 45.3946 71.8946C45.7933 72.0551 46.2395 72.0506 46.6349 71.8821L56.0921 67.8374L65.5429 63.7926C65.8944 63.646 66.1832 63.3803 66.3583 63.0421C66.5335 62.7039 66.584 62.3147 66.5008 61.943C66.4176 61.5713 66.2062 61.2408 65.9036 61.0094C65.601 60.7781 65.2266 60.6608 64.846 60.678Z" fill="#0F3D56"/>
</svg>
