<svg width="79" height="88" viewBox="0 0 79 88" fill="none" xmlns="http://www.w3.org/2000/svg">
<path d="M75.2969 10H3.70312C2.721 10 1.77909 10.4281 1.08462 11.1901C0.39015 11.9521 0 12.9855 0 14.0632L0 60.1122C0 61.1898 0.39015 62.2233 1.08462 62.9853C1.77909 63.7473 2.721 64.1753 3.70312 64.1753H4.32031V66.8841C4.32031 67.9617 4.71046 68.9952 5.40493 69.7572C6.0994 70.5192 7.04131 70.9473 8.02344 70.9473H8.64062V73.656C8.64062 74.7337 9.03078 75.7671 9.72525 76.5291C10.4197 77.2911 11.3616 77.7192 12.3438 77.7192H66.6562C67.6384 77.7192 68.5803 77.2911 69.2747 76.5291C69.9692 75.7671 70.3594 74.7337 70.3594 73.656V70.9473H70.9766C71.9587 70.9473 72.9006 70.5192 73.5951 69.7572C74.2895 68.9952 74.6797 67.9617 74.6797 66.8841V64.1753H75.2969C76.279 64.1753 77.2209 63.7473 77.9154 62.9853C78.6098 62.2233 79 61.1898 79 60.1122V14.0632C79 12.9855 78.6098 11.9521 77.9154 11.1901C77.2209 10.4281 76.279 10 75.2969 10ZM67.8906 73.656C67.8906 74.0152 67.7606 74.3597 67.5291 74.6137C67.2976 74.8677 66.9836 75.0104 66.6562 75.0104H12.3438C12.0164 75.0104 11.7024 74.8677 11.4709 74.6137C11.2394 74.3597 11.1094 74.0152 11.1094 73.656V70.9473H67.8906V73.656ZM72.2109 66.8841C72.2109 67.2433 72.0809 67.5878 71.8494 67.8418C71.6179 68.0958 71.3039 68.2385 70.9766 68.2385H8.02344C7.69606 68.2385 7.38209 68.0958 7.1506 67.8418C6.91911 67.5878 6.78906 67.2433 6.78906 66.8841V64.1753H72.2109V66.8841ZM76.5312 60.1122C76.5312 60.4714 76.4012 60.8159 76.1697 61.0699C75.9382 61.3239 75.6243 61.4666 75.2969 61.4666H3.70312C3.37575 61.4666 3.06178 61.3239 2.83029 61.0699C2.5988 60.8159 2.46875 60.4714 2.46875 60.1122V14.0632C2.46875 13.7039 2.5988 13.3595 2.83029 13.1055C3.06178 12.8515 3.37575 12.7088 3.70312 12.7088H75.2969C75.6243 12.7088 75.9382 12.8515 76.1697 13.1055C76.4012 13.3595 76.5312 13.7039 76.5312 14.0632V60.1122Z" fill="#0F3D56"/>
<path d="M69.125 28.9612C67.1607 28.9612 65.2769 28.105 63.888 26.581C62.499 25.057 61.7188 22.9901 61.7188 20.8349C61.7188 20.4756 61.5887 20.1312 61.3572 19.8772C61.1257 19.6232 60.8118 19.4805 60.4844 19.4805H18.5156C18.1882 19.4805 17.8743 19.6232 17.6428 19.8772C17.4113 20.1312 17.2812 20.4756 17.2812 20.8349C17.2812 22.9901 16.501 25.057 15.112 26.581C13.7231 28.105 11.8393 28.9612 9.875 28.9612C9.54762 28.9612 9.23366 29.1038 9.00217 29.3578C8.77068 29.6118 8.64062 29.9563 8.64062 30.3155V43.8594C8.64062 44.2186 8.77068 44.5631 9.00217 44.8171C9.23366 45.0711 9.54762 45.2138 9.875 45.2138C11.8393 45.2138 13.7231 46.0699 15.112 47.5939C16.501 49.1179 17.2812 51.1848 17.2812 53.3401C17.2812 53.6993 17.4113 54.0438 17.6428 54.2978C17.8743 54.5518 18.1882 54.6944 18.5156 54.6944H60.4844C60.8118 54.6944 61.1257 54.5518 61.3572 54.2978C61.5887 54.0438 61.7188 53.6993 61.7188 53.3401C61.7188 51.1848 62.499 49.1179 63.888 47.5939C65.2769 46.0699 67.1607 45.2138 69.125 45.2138C69.4524 45.2138 69.7663 45.0711 69.9978 44.8171C70.2293 44.5631 70.3594 44.2186 70.3594 43.8594V30.3155C70.3594 29.9563 70.2293 29.6118 69.9978 29.3578C69.7663 29.1038 69.4524 28.9612 69.125 28.9612ZM67.8906 42.5863C65.714 42.8864 63.6905 43.9732 62.1393 45.6752C60.5881 47.3772 59.5976 49.5975 59.3241 51.9857H19.6759C19.4024 49.5975 18.4119 47.3772 16.8607 45.6752C15.3095 43.9732 13.286 42.8864 11.1094 42.5863V31.5887C13.286 31.2885 15.3095 30.2017 16.8607 28.4997C18.4119 26.7977 19.4024 24.5774 19.6759 22.1892H59.3241C59.5976 24.5774 60.5881 26.7977 62.1393 28.4997C63.6905 30.2017 65.714 31.2885 67.8906 31.5887V42.5863Z" fill="#0F3D56"/>
<path d="M39.5 24.8984C37.3028 24.8984 35.1549 25.6133 33.328 26.9527C31.501 28.2921 30.0771 30.1959 29.2363 32.4232C28.3954 34.6505 28.1754 37.1014 28.6041 39.4659C29.0328 41.8305 30.0908 44.0024 31.6445 45.7071C33.1982 47.4119 35.1777 48.5728 37.3327 49.0431C39.4877 49.5135 41.7214 49.2721 43.7514 48.3495C45.7814 47.4269 47.5164 45.8645 48.7371 43.86C49.9578 41.8554 50.6094 39.4987 50.6094 37.0879C50.6094 33.855 49.4389 30.7546 47.3555 28.4686C45.2721 26.1827 42.4464 24.8984 39.5 24.8984ZM39.5 46.5686C37.7911 46.5686 36.1205 46.0125 34.6995 44.9708C33.2786 43.929 32.1711 42.4484 31.5171 40.716C30.8631 38.9836 30.692 37.0774 31.0254 35.2383C31.3588 33.3992 32.1817 31.7099 33.3902 30.384C34.5986 29.0581 36.1382 28.1552 37.8143 27.7894C39.4904 27.4236 41.2278 27.6113 42.8066 28.3289C44.3855 29.0464 45.735 30.2616 46.6844 31.8207C47.6339 33.3798 48.1406 35.2128 48.1406 37.0879C48.1406 39.6023 47.2303 42.0138 45.6099 43.7917C43.9894 45.5697 41.7916 46.5686 39.5 46.5686Z" fill="#0F3D56"/>
</svg>
