<svg width="79" height="80" viewBox="0 0 79 80" fill="none" xmlns="http://www.w3.org/2000/svg">
<path d="M55.9587 69.625V63.0417C55.9587 59.5496 54.5715 56.2007 52.1022 53.7314C49.633 51.2622 46.284 49.875 42.792 49.875H16.4587C12.9666 49.875 9.61765 51.2622 7.14842 53.7314C4.67919 56.2007 3.29199 59.5496 3.29199 63.0417V69.625" stroke="white" stroke-width="5" stroke-linecap="round" stroke-linejoin="round"/>
<path d="M29.6247 36.7083C36.8964 36.7083 42.7913 30.8134 42.7913 23.5417C42.7913 16.2699 36.8964 10.375 29.6247 10.375C22.3529 10.375 16.458 16.2699 16.458 23.5417C16.458 30.8134 22.3529 36.7083 29.6247 36.7083Z" stroke="white" stroke-width="5" stroke-linecap="round" stroke-linejoin="round"/>
<path d="M75.708 69.6248V63.0415C75.7058 60.1242 74.7348 57.2902 72.9475 54.9845C71.1602 52.6788 68.6577 51.0321 65.833 50.3027" stroke="white" stroke-width="5" stroke-linecap="round" stroke-linejoin="round"/>
<path d="M52.667 10.8027C55.4992 11.5279 58.0095 13.175 59.8021 15.4845C61.5948 17.794 62.5678 20.6344 62.5678 23.5579C62.5678 26.4815 61.5948 29.3219 59.8021 31.6314C58.0095 33.9408 55.4992 35.588 52.667 36.3131" stroke="white" stroke-width="5" stroke-linecap="round" stroke-linejoin="round"/>
</svg>
