<svg width="77" height="77" viewBox="0 0 77 77" fill="none" xmlns="http://www.w3.org/2000/svg">
<rect width="77" height="77" rx="20" fill="#0F3D56"/>
<path d="M23.3235 26.0986H20.549C19.0773 26.0986 17.6659 26.6833 16.6253 27.7239C15.5846 28.7645 15 30.176 15 31.6477V56.6183C15 58.09 15.5846 59.5014 16.6253 60.542C17.6659 61.5827 19.0773 62.1673 20.549 62.1673H45.5196C46.9913 62.1673 48.4027 61.5827 49.4434 60.542C50.484 59.5014 51.0687 58.09 51.0687 56.6183V53.8438" stroke="#F8FCFF" stroke-width="4" stroke-linecap="round" stroke-linejoin="round"/>
<path d="M48.2946 20.5493L56.6182 28.8729M60.4609 24.9469C61.5536 23.8542 62.1675 22.3721 62.1675 20.8268C62.1675 19.2814 61.5536 17.7994 60.4609 16.7066C59.3681 15.6139 57.8861 15 56.3407 15C54.7954 15 53.3133 15.6139 52.2206 16.7066L28.873 39.9709V48.2944H37.1966L60.4609 24.9469Z" stroke="#F8FCFF" stroke-width="4" stroke-linecap="round" stroke-linejoin="round"/>
</svg>
