<svg width="108" height="109" viewBox="0 0 108 109" fill="none" xmlns="http://www.w3.org/2000/svg">
<path d="M0 8.33399C0 3.91571 3.58172 0.333984 8 0.333984H100C104.418 0.333984 108 3.91571 108 8.33398V100.334C108 104.752 104.418 108.334 100 108.334H8C3.58172 108.334 0 104.752 0 100.334V8.33399Z" fill="white"/>
<path d="M25.7879 60.3646C25.7879 59.3653 25.7987 56.6943 25.7741 56.3652C25.7956 52.3907 22.9058 49.587 21.0801 49.8056C19.8168 49.9152 18.7581 50.4303 18.1896 51.9122C17.6628 53.2932 18.1338 55.1302 19.8855 55.5612C21.7587 56.0242 22.8524 56.4093 23.644 56.9527C24.6139 57.6179 25.4057 58.8889 25.4267 60.3662" fill="#0060AF"/>
<path d="M26.5355 66.4062C23.2328 66.4062 19.8385 65.5927 16.4487 63.9838L16.3655 63.9429L16.3257 63.8581C14.8045 60.6471 14.0001 57.135 14.0001 53.6989C14.0001 50.268 14.7715 46.9062 16.2939 43.6995L16.3357 43.6143L16.4204 43.5718C19.5562 42.0864 22.9294 41.3339 26.4496 41.3339C29.7289 41.3339 33.231 42.1716 36.5758 43.7606L36.6617 43.7988L36.7013 43.8856C38.2516 47.1558 39.0692 50.6669 39.0692 54.0461C39.0692 57.4122 38.2842 60.7769 36.732 64.045L36.6911 64.1309L36.6048 64.1707C33.517 65.6324 30.0347 66.4062 26.5355 66.4062ZM16.7624 63.5435C20.0555 65.0925 23.3397 65.8748 26.5355 65.8748C29.9242 65.8748 33.2943 65.134 36.2942 63.73C37.7844 60.563 38.5398 57.3037 38.5398 54.0461C38.5398 50.7754 37.7514 47.3732 36.2601 44.1993C33.014 42.6734 29.624 41.8642 26.4496 41.8642C23.0416 41.8642 19.775 42.587 16.7339 44.0131C15.2742 47.1212 14.5313 50.3781 14.5313 53.6989C14.5313 57.0261 15.3034 60.4297 16.7624 63.5435Z" fill="#0060AF"/>
<path d="M25.0051 60.3662C25.0112 59.0853 24.2963 57.9526 23.3618 57.3439C22.533 56.806 21.4202 56.4525 19.6251 55.9972C19.0702 55.8553 18.4898 55.54 18.3101 55.1381C17.8347 55.6171 17.7484 56.6939 17.832 57.3231C17.9292 58.0514 18.7802 59.2516 20.0616 59.2987C20.8441 59.3301 21.8334 59.1303 22.3079 59.0295C23.1263 58.8527 24.4213 59.3653 24.6274 60.3646" fill="#0060AF"/>
<path d="M26.4497 43.6112C24.2771 43.6112 22.4003 45.044 22.4071 47.5233C22.4139 49.6083 24.0906 50.7244 24.6889 51.5216C25.593 52.723 26.0824 54.1449 26.1332 56.3207C26.1728 58.0523 26.1707 59.7622 26.1796 60.3682H26.6592C26.6508 59.7342 26.6291 57.919 26.654 56.2671C26.6865 54.0907 27.1935 52.723 28.0981 51.5216C28.7016 50.7244 30.3769 49.6083 30.3806 47.5233C30.3887 45.044 28.5131 43.6112 26.3423 43.6112" fill="#0060AF"/>
<path d="M27.0013 60.3646C27.0013 59.3653 26.99 56.6943 27.0142 56.3652C26.9929 52.3907 29.8809 49.587 31.7081 49.8056C32.9714 49.9152 34.029 50.4303 34.5991 51.9122C35.1255 53.2932 34.6517 55.1302 32.902 55.5612C31.028 56.0242 29.9356 56.4093 29.142 56.9527C28.1732 57.6179 27.4368 58.8889 27.4142 60.3662" fill="#0060AF"/>
<path d="M27.7833 60.3662C27.7766 59.0853 28.4913 57.9526 29.423 57.3439C30.2552 56.806 31.3693 56.4525 33.1629 55.9972C33.7189 55.8553 34.2987 55.54 34.4752 55.1381C34.9528 55.6171 35.0389 56.6939 34.9553 57.3231C34.8561 58.0514 34.0073 59.2516 32.7282 59.2987C31.9459 59.3301 30.9514 59.1303 30.479 59.0295C29.6637 58.8527 28.3652 59.3653 28.1581 60.3646" fill="#0060AF"/>
<path d="M28.4537 64.5014L28.1756 62.4728L28.8467 62.3711C29.0101 62.3487 29.209 62.3772 29.2886 62.4796C29.3765 62.5865 29.4034 62.6749 29.4204 62.815C29.4457 62.9884 29.3955 63.1889 29.2002 63.2888V63.2949C29.4184 63.2949 29.5501 63.4515 29.5883 63.716C29.594 63.7718 29.6105 63.9067 29.594 64.0193C29.5497 64.2871 29.3899 64.3733 29.1202 64.411L28.4537 64.5014ZM28.8856 64.1382C28.9652 64.1268 29.0459 64.1226 29.1089 64.0824C29.2054 64.0193 29.1966 63.8844 29.1833 63.7842C29.1496 63.5641 29.0922 63.4805 28.8587 63.515L28.712 63.5376L28.8049 64.1495L28.8856 64.1382ZM28.745 63.2008C28.8338 63.1864 28.9543 63.1758 29.0045 63.0914C29.0307 63.0352 29.0644 62.9904 29.0422 62.8652C29.0149 62.7167 28.9656 62.6247 28.7771 62.6604L28.6015 62.6887L28.6706 63.2085" fill="#0060AF"/>
<path d="M31.3606 63.2813C31.3658 63.3191 31.3719 63.3611 31.3742 63.3988C31.4284 63.7689 31.3606 64.0751 30.9447 64.1594C30.3299 64.2779 30.2122 63.8959 30.1039 63.3611L30.0463 63.0718C29.9615 62.56 29.9251 62.1726 30.5245 62.0533C30.8625 61.9916 31.0858 62.1261 31.1787 62.4624C31.1931 62.5126 31.2112 62.5623 31.218 62.6127L30.8503 62.6887C30.8078 62.5623 30.7515 62.3365 30.586 62.3555C30.289 62.3912 30.3871 62.7608 30.4176 62.9151L30.5282 63.4705C30.5614 63.6385 30.6274 63.9067 30.8844 63.855C31.093 63.8132 31.0022 63.4881 30.9836 63.355" fill="#0060AF"/>
<path d="M31.9508 63.8952L31.8236 61.7958L32.3177 61.6451L33.3536 63.471L32.9646 63.5874L32.7191 63.1233L32.2872 63.2531L32.343 63.7806L31.9508 63.8952ZM32.251 62.914L32.5632 62.8236L32.1486 61.9742" fill="#0060AF"/>
<path d="M19.7468 62.308C19.9014 61.813 20.04 61.4487 20.6299 61.6105C20.9457 61.6987 21.1414 61.8379 21.1322 62.2047C21.1307 62.2863 21.1037 62.3695 21.0861 62.4502L20.7188 62.3487C20.7669 62.1462 20.7974 61.9855 20.5479 61.9086C20.2595 61.8295 20.1892 62.1792 20.1494 62.3302L20 62.8806C19.9525 63.044 19.8956 63.3141 20.1494 63.3837C20.3592 63.4402 20.4864 63.2343 20.5624 62.9337L20.3054 62.8656L20.3942 62.5472L20.9984 62.7416L20.7115 63.8023L20.4335 63.7268L20.4961 63.5026H20.4882C20.3603 63.6859 20.2041 63.7051 20.0673 63.6789C19.4632 63.5155 19.5262 63.1206 19.6704 62.5931" fill="#0060AF"/>
<path d="M21.9957 63.204L21.8137 64.067L21.4042 63.9784L21.8406 61.9633L22.5388 62.1211C22.9475 62.2093 23.0709 62.3912 23.013 62.7658C22.98 62.9807 22.874 63.2124 22.6152 63.1936L22.6125 63.1901C22.8313 63.2667 22.8498 63.377 22.8116 63.5678C22.7951 63.6489 22.6814 64.1415 22.7599 64.221L22.7626 64.2814L22.3388 64.1708C22.3212 64.0343 22.3811 63.7889 22.4048 63.653C22.4287 63.5328 22.4669 63.3632 22.3449 63.2995C22.2493 63.2486 22.2138 63.2511 22.1057 63.2263L21.9957 63.204ZM22.0655 62.8919L22.3413 62.9662C22.5088 62.9904 22.6019 62.9036 22.6349 62.7013C22.6647 62.5157 22.6261 62.4432 22.4758 62.4073L22.1801 62.3474" fill="#0060AF"/>
<path d="M24.6226 62.4136L25.0277 62.4606L24.8532 63.8771C24.7684 64.3263 24.5948 64.5227 24.1007 64.4612C23.598 64.3977 23.4787 64.1687 23.5092 63.716L23.6848 62.3006L24.093 62.3474L23.9178 63.7311C23.8993 63.8814 23.8645 64.1041 24.1319 64.131C24.369 64.1491 24.4228 63.992 24.4495 63.7967" fill="#0060AF"/>
<path d="M25.4742 64.5387L25.5961 62.513L26.3743 62.5467C26.742 62.5648 26.8383 62.8652 26.8268 63.1518C26.8162 63.3261 26.7617 63.5207 26.6098 63.6262C26.4853 63.716 26.3252 63.7372 26.1767 63.73L25.9231 63.7159L25.8725 64.5649L25.4742 64.5387ZM25.9346 63.407L26.1408 63.4185C26.3083 63.4246 26.4193 63.3584 26.4337 63.1125C26.4419 62.8763 26.3526 62.8363 26.1356 62.8268L25.9722 62.8212" fill="#0060AF"/>
<path d="M80.3619 45.5691L77.2689 51.183C76.1014 50.235 74.6758 49.5373 72.857 49.5373C68.5527 49.5373 66.8043 52.7458 66.8043 55.0059C66.8043 56.6835 67.9028 59.1587 71.7327 59.1587C73.3402 59.1587 75.6256 58.0403 76.2834 57.5315L73.2243 64.0446C71.7662 64.3355 71.2872 64.5159 70.0528 64.5541C63.198 64.7587 60.428 60.5477 60.43 56.2448C60.4346 50.5565 65.492 43.6386 73.8759 43.6386C74.3897 43.6386 75.0181 43.8162 75.5553 44.0131L76.0983 43.3187" fill="#0060AF"/>
<path d="M93.1242 43.4948L94.0001 63.8991H87.4818L87.478 60.3996H83.0333L81.5704 63.8991H74.5013L81.8918 49.3287L80.2253 49.3178L83.3918 43.4948H93.1242ZM87.4357 49.7369L84.9227 55.6718H87.5114" fill="#0060AF"/>
<path d="M56.315 43.4948C59.5429 43.5129 61.367 45.2651 61.367 47.7962C61.367 50.1295 59.4432 52.195 57.3314 53.263C59.5056 54.0622 59.6937 56.0242 59.6937 57.4122C59.6937 60.7656 56.3287 63.8991 51.9548 63.8991H42.4159L46.1368 49.5316L44.6084 49.5228L47.7328 43.4948C47.7328 43.4948 53.6901 43.4767 56.315 43.4948ZM53.148 51.7675C53.8157 51.7675 54.9947 51.5985 55.2895 50.3062C55.6125 48.9035 54.506 48.8658 53.9753 48.8658L52.0789 48.8574L51.4175 51.7676L53.148 51.7675ZM50.4669 55.3732L49.5937 58.7266H51.8267C52.7052 58.7266 53.9025 58.2906 54.1959 57.1993C54.4857 56.1048 53.6487 55.3732 52.7733 55.3732" fill="#0060AF"/>
</svg>
