<svg width="108" height="109" viewBox="0 0 108 109" fill="none" xmlns="http://www.w3.org/2000/svg">
<path d="M0 8.33399C0 3.91571 3.58172 0.333984 8 0.333984H100C104.418 0.333984 108 3.91571 108 8.33398V100.334C108 104.752 104.418 108.334 100 108.334H8C3.58172 108.334 0 104.752 0 100.334V8.33399Z" fill="white"/>
<path fill-rule="evenodd" clip-rule="evenodd" d="M14 50.4692L20.749 58.9828L14 64.5753V50.4692Z" fill="#F15A23"/>
<path fill-rule="evenodd" clip-rule="evenodd" d="M16.7163 64.5752L21.7946 60.327L25.3046 64.5752H16.7163Z" fill="#F15A23"/>
<path fill-rule="evenodd" clip-rule="evenodd" d="M14 45.9136L15.7612 48.1415L23.0028 57.1904L25.3493 55.3218C25.3493 55.3218 23.4013 53.0284 22.0933 50.4691C19.5359 45.4655 21.3465 42.3503 21.3465 42.3503H14V45.9136Z" fill="#F15A23"/>
<path fill-rule="evenodd" clip-rule="evenodd" d="M24.0349 58.5873L26.4247 56.6134C26.4247 56.6134 28.7071 59.6179 31.3536 60.327C34.8217 61.2563 36.3572 58.9828 36.3572 58.9828V64.5753H28.7398L30.4575 63.0902C30.4575 63.0902 29.5613 63.6876 27.3695 62.1695C26.0759 61.2735 24.0349 58.5873 24.0349 58.5873Z" fill="#F15A23"/>
<path fill-rule="evenodd" clip-rule="evenodd" d="M24.2548 42.334C24.2548 42.334 23.4924 43.3725 24.0351 45.9136C24.6151 48.6297 26.9219 51.5044 26.9166 51.44C26.9166 51.44 27.0649 48.5856 28.74 46.9105C32.3104 43.3401 36.3574 45.4655 36.3574 45.4655V42.3503L24.2548 42.334Z" fill="#F15A23"/>
<path fill-rule="evenodd" clip-rule="evenodd" d="M36.3573 49.2295C36.3573 49.2295 34.0993 47.2955 32.1363 47.2955C29.6251 47.2955 28.2544 49.4634 28.2544 51.0361C28.2544 53.3268 29.3539 54.5996 30.4575 55.7031C32.0434 57.2891 33.9728 58.9995 36.3573 57.6228C36.3573 55.0173 36.3573 49.2295 36.3573 49.2295Z" fill="#F15A23"/>
<path fill-rule="evenodd" clip-rule="evenodd" d="M62.0718 42.567H67.4C67.4 42.567 72.12 49.7139 74.4397 52.6666C76.7594 55.6194 79.2563 58.9828 79.2563 58.9828C79.2563 58.9828 79.2563 49.2295 79.2563 44.1675C79.2563 43.5277 77.5763 42.567 77.5763 42.567H83.7205C83.7205 42.567 81.7044 43.3953 81.7044 44.1675C81.7044 50.4691 81.7044 65.7202 81.7044 65.7202C81.7044 65.7202 79.7699 64.6475 77.5763 62.0984C75.1115 59.2344 66.3439 47.6716 66.3439 47.6716C66.3439 47.6716 66.3439 58.5873 66.3439 62.6481C66.3439 63.4151 68.024 64.5753 68.024 64.5753H62.0718C62.0718 64.5753 63.7038 63.4057 63.7038 62.6481C63.7038 57.1904 63.7038 49.2295 63.7038 44.1675C63.7038 43.4874 62.0718 42.567 62.0718 42.567Z" fill="#005E6A"/>
<path fill-rule="evenodd" clip-rule="evenodd" d="M87.1616 42.567H94C94 42.567 92.1638 43.4368 92.1638 44.1675C92.1638 49.2295 92.1638 57.6229 92.1638 62.6481C92.1638 63.4467 94 64.5753 94 64.5753H87.1616C87.1616 64.5753 88.8712 63.421 88.8712 62.6481C88.8712 56.6134 88.8712 49.2295 88.8712 44.1675C88.8712 43.465 87.1616 42.567 87.1616 42.567Z" fill="#005E6A"/>
<path fill-rule="evenodd" clip-rule="evenodd" d="M41.9526 42.567C41.9526 42.567 43.7255 43.451 43.7255 44.1675C43.7255 49.2295 43.7255 56.6134 43.7255 62.6481C43.7255 63.4337 41.9526 64.5753 41.9526 64.5753C41.9526 64.5753 50.8096 64.5753 52.0835 64.5753C52.7167 64.5753 59.8083 63.4157 59.8083 57.9483C59.8083 52.481 54.2996 51.969 54.2996 51.969C54.2996 51.969 57.6555 51.0361 57.6555 47.2955C57.6555 43.2635 52.7167 42.567 52.0835 42.567C50.7677 42.567 41.9526 42.567 41.9526 42.567ZM47.3347 51.6067V44.7263C47.3347 44.7263 50.2712 44.7263 51.4503 44.7263C52.0835 44.7263 54.2996 45.4655 54.2996 48.2084C54.2996 50.4692 52.0835 51.6067 51.4503 51.6067C50.0148 51.6067 47.3347 51.6067 47.3347 51.6067ZM47.3347 53.4113C47.3347 53.4113 51.4503 53.4113 52.0835 53.4113C52.7167 53.4113 56.4525 54.3817 56.4525 57.6229C56.4525 60.9274 52.7167 62.0984 52.0835 62.0984C51.4503 62.0984 47.3347 62.0984 47.3347 62.0984V53.4113Z" fill="#005E6A"/>
</svg>
