<svg width="108" height="109" viewBox="0 0 108 109" fill="none" xmlns="http://www.w3.org/2000/svg">
<path d="M0 8.33399C0 3.91571 3.58172 0.333984 8 0.333984H100C104.418 0.333984 108 3.91571 108 8.33398V100.334C108 104.752 104.418 108.334 100 108.334H8C3.58172 108.334 0 104.752 0 100.334V8.33399Z" fill="white"/>
<path d="M39.636 39.334H18.6168C16.0681 39.334 14 41.452 14 44.068V64.8786C14 67.4706 16.0272 69.5753 18.5476 69.6126L39.621 69.6132C42.1697 69.6132 44.2426 67.4947 44.2426 64.8786L44.2528 44.068C44.2528 41.452 42.1841 39.334 39.636 39.334ZM21.1149 67.1873L19.9678 67.2011C18.5789 67.2011 17.4576 66.0576 17.4576 64.6524L17.4492 64.4497V45.232L17.4576 44.1962C17.5135 42.8367 18.5452 41.7383 19.8986 41.7383H22.2283C24.3439 41.7383 26.0547 43.576 26.0547 45.7403C26.0547 46.8152 25.6336 47.7855 24.9527 48.4947L19.0077 54.5244L24.5821 60.2029C25.298 60.9452 25.7311 61.9191 25.7311 62.9832C25.7311 65.3045 23.6684 67.1873 21.1149 67.1873ZM38.2525 67.1698L27.8587 67.1668C27.8587 67.1668 29.0605 64.567 29.0605 62.9603C29.0605 61.0011 28.4055 59.2477 27.3799 58.0903L23.8266 54.4655L27.4502 50.7204C28.5348 49.7014 29.2506 47.8986 29.2506 45.848C29.2506 44.2232 28.8019 42.7838 28.0752 41.7383H30.595C32.7088 41.7383 34.4214 43.576 34.4214 45.7403C34.4214 46.8152 34.0021 47.7855 33.323 48.4947L27.4881 54.4631L39.603 66.8179C39.2168 67.0597 38.7344 67.1698 38.2525 67.1698ZM40.788 63.311L32.1049 54.4613L36.2398 50.2602C37.0825 49.2045 37.6191 47.6195 37.6191 45.848C37.6191 44.2136 37.1619 42.7362 36.4323 41.6914L38.2808 41.7491C39.6673 41.7491 40.7952 42.889 40.7952 44.2984L40.788 63.311Z" fill="#00529C"/>
<path d="M62.8834 53.0519C63.0524 52.8829 63.2522 52.6651 63.4825 52.3986C63.7123 52.1321 63.9301 51.8175 64.1358 51.4542C64.3415 51.0909 64.5172 50.6861 64.6621 50.2379C64.8077 49.7904 64.8805 49.3122 64.8805 48.8039C64.8805 47.812 64.7109 46.8862 64.3722 46.0266C64.0329 45.1676 63.5126 44.4169 62.8106 43.7751C62.1087 43.1345 61.2316 42.6316 60.1783 42.2682C59.1257 41.9055 57.8967 41.7239 56.4934 41.7239H47.2346V67.1391H57.4011C58.8772 67.1391 60.1657 66.9394 61.2677 66.54C62.3685 66.1406 63.2828 65.5902 64.0089 64.8882C64.7349 64.1862 65.2733 63.3693 65.6246 62.4376C65.9753 61.5058 66.1509 60.5073 66.1509 59.4419C66.1509 58.0139 65.8243 56.7435 65.171 55.6294C64.5172 54.5166 63.7544 53.657 62.8834 53.0519ZM58.3882 46.3809C58.7305 46.5114 59.0162 46.6811 59.2393 46.8946C59.8174 47.4492 60.1068 48.1121 60.1068 48.8833C60.1068 49.5829 59.9858 50.1609 59.7452 50.6187C59.504 51.0771 59.2628 51.4266 59.0222 51.6672H51.9548V46.0807H56.3478C57.1713 46.0807 57.8492 46.1824 58.3882 46.3809ZM57.6549 56.0656C58.9344 56.0656 59.8824 56.397 60.4996 57.0587C61.08 57.7101 61.3724 58.4789 61.3724 59.3686C61.3724 60.2853 61.0409 61.0679 60.378 61.7187C59.7146 62.3696 58.6246 62.6956 57.1057 62.6956H51.9548V56.0656H57.6549Z" fill="#00529C"/>
<path d="M83.3872 56.1925C84.1494 55.6722 84.7852 55.067 85.2935 54.3771C85.8018 53.6871 86.1765 52.925 86.4189 52.09C86.6608 51.2545 86.7823 50.4015 86.7823 49.5299C86.7823 48.3924 86.594 47.3458 86.2192 46.3893C85.8433 45.4335 85.2808 44.6106 84.5307 43.9207C83.78 43.2307 82.8422 42.6923 81.7168 42.3049C80.5913 41.9182 79.2902 41.7239 77.814 41.7239H67.8106V67.1391H72.6222V57.6993H75.3051L81.9405 67.1391H87.5805L80.7188 57.3727C81.7348 57.1068 82.6245 56.7134 83.3872 56.1925ZM77.8501 46.0807C78.1527 46.0807 78.4384 46.1006 78.7103 46.1349C79.5681 46.2642 80.2689 46.5704 80.8091 47.057C81.5441 47.7205 81.9117 48.5338 81.9117 49.4974C81.9117 49.9805 81.8329 50.4503 81.6765 50.908C81.5195 51.3664 81.2728 51.77 80.9354 52.1189C80.5973 52.469 80.1636 52.7517 79.6337 52.9689C79.1031 53.186 78.4643 53.2943 77.7172 53.2943H72.6222V46.0807H77.8501Z" fill="#00529C"/>
<path d="M89.2798 41.7239V41.7311C89.231 41.7299 89.1835 41.7239 89.1348 41.7239H89.0939V67.1391H94V41.7239H89.2798Z" fill="#00529C"/>
</svg>
