<svg width="108" height="109" viewBox="0 0 108 109" fill="none" xmlns="http://www.w3.org/2000/svg">
<path d="M0 8.33399C0 3.91571 3.58172 0.333984 8 0.333984H100C104.418 0.333984 108 3.91571 108 8.33398V100.334C108 104.752 104.418 108.334 100 108.334H8C3.58172 108.334 0 104.752 0 100.334V8.33399Z" fill="white"/>
<path d="M15.9149 57.1871H16.7797C17.2733 57.1871 17.6719 57.2265 18.1116 57.7341C18.4227 58.085 18.7647 58.8605 18.7647 60.115C18.7647 60.5653 18.768 61.0111 18.6827 61.4694C18.5457 62.192 18.2121 63.3504 16.3046 63.3504C15.7942 63.3504 15.9149 63.3372 15.9149 63.3372V57.1871ZM16.8959 64.4196C19.4632 64.4196 20.6126 63.2741 20.6126 60.1453C20.6126 59.3181 20.3695 57.9317 19.5991 57.0861C18.8023 56.218 17.7719 56.1096 16.9015 56.1096H14.04V64.4196H16.8959Z" fill="#046148"/>
<path d="M24.9986 62.2672C24.9986 62.5423 24.9907 62.9118 24.6987 63.1763C24.4539 63.3919 24.1091 63.4082 23.9777 63.4082C23.652 63.4082 23.3589 63.2897 23.2354 62.8871C23.2045 62.7602 23.1921 62.6322 23.1921 62.5098C23.1921 61.9028 23.5947 61.6473 24.0422 61.5383C24.2768 61.484 24.4347 61.4737 24.9985 61.4267L24.9986 62.2672ZM24.9986 60.6775L24.0631 60.7696C23.0551 60.8851 22.6694 60.9772 22.2381 61.2637C21.5418 61.7371 21.5328 62.4294 21.5328 62.6569C21.5328 63.2246 21.7051 63.6519 21.9399 63.8978C22.2493 64.2583 22.7395 64.3903 23.2129 64.3903C24.3736 64.3903 24.9272 63.863 24.9272 63.863L24.9352 64.2381H26.5002V60.3069C26.5002 59.8644 26.5107 59.2422 26.0032 58.802C25.7376 58.5745 25.5051 58.4696 25.1458 58.4185C24.7886 58.3543 24.6645 58.3285 24.3164 58.3285C23.2607 58.3285 22.4645 58.5142 22.0108 59.3218C21.816 59.6717 21.8261 60.0226 21.8261 60.291H23.2607C23.274 60.057 23.2845 59.7329 23.4674 59.5077C23.56 59.3797 23.7768 59.1972 24.1782 59.1972C24.3091 59.1972 24.6892 59.1972 24.883 59.5139C24.9909 59.701 24.9999 59.944 24.9999 60.2197V60.6774L24.9986 60.6775Z" fill="#046148"/>
<path d="M37.4574 62.2672C37.4574 62.5423 37.4496 62.9118 37.1553 63.1763C36.9168 63.3919 36.5708 63.4082 36.431 63.4082C36.1075 63.4082 35.8189 63.2897 35.6937 62.8871C35.6623 62.7602 35.6533 62.6322 35.6533 62.5098C35.6533 61.9028 36.0537 61.6473 36.5035 61.5383C36.738 61.484 36.8943 61.4737 37.4575 61.4267L37.4574 62.2672ZM37.4574 60.6775L36.5259 60.7696C35.5118 60.8851 35.1316 60.9772 34.6975 61.2637C34.0052 61.7371 33.9945 62.4294 33.9945 62.6569C33.9945 63.2246 34.1618 63.6519 34.3943 63.8978C34.7082 64.2583 35.2012 64.3903 35.6723 64.3903C36.8358 64.3903 37.3884 63.863 37.3884 63.863L37.3963 64.2381H38.9557V60.3069C38.9557 59.8644 38.9689 59.2422 38.4643 58.802C38.1987 58.5745 37.9618 58.4696 37.6069 58.4185C37.2481 58.3543 37.1257 58.3285 36.7753 58.3285C35.7201 58.3285 34.9256 58.5142 34.4691 59.3218C34.277 59.6717 34.2894 60.0226 34.2894 60.291H35.7201C35.7333 60.057 35.7439 59.7329 35.9273 59.5077C36.0188 59.3797 36.2356 59.1972 36.6376 59.1972C36.7685 59.1972 37.148 59.1972 37.3468 59.5139C37.4495 59.701 37.4584 59.944 37.4584 60.2197V60.6774L37.4574 60.6775Z" fill="#046148"/>
<path d="M61.0339 64.238H59.4009V60.7195C59.4009 60.4944 59.4009 60.3068 59.3825 60.1153C59.3666 59.9311 59.3139 59.3336 58.602 59.3336C58.4133 59.3336 58.2532 59.3803 58.1511 59.4236C57.6698 59.6442 57.6575 60.0351 57.6457 60.3457V64.2381H56.0094V58.4803H57.6457V59.135C58.0567 58.7672 58.4285 58.3646 59.3465 58.3646C60.1175 58.3646 60.4994 58.6633 60.6572 58.8481C61.0204 59.2563 61.0204 59.7858 61.0345 60.1985L61.0339 64.238Z" fill="#046148"/>
<path d="M32.7931 64.238H31.1613V60.7195C31.1613 60.4944 31.1613 60.3068 31.1343 60.1153C31.1238 59.9311 31.0681 59.3336 30.3521 59.3336C30.1696 59.3336 30.0096 59.3803 29.9074 59.4236C29.425 59.6442 29.411 60.0351 29.3976 60.3457V64.2381H27.7624V58.4803H29.3976V59.135C29.8164 58.7672 30.1837 58.3646 31.1006 58.3646C31.8761 58.3646 32.2512 58.6633 32.4135 58.8481C32.7802 59.2563 32.7802 59.7858 32.7931 60.1985L32.7931 64.238Z" fill="#046148"/>
<path d="M40.1554 58.4774H41.79V59.1473C42.1039 58.8671 42.6576 58.3595 43.6391 58.3595C44.7622 58.3595 45.0744 59.03 45.1507 59.2512C45.8195 58.6043 46.2592 58.3595 46.8999 58.3595C47.2138 58.3595 47.4289 58.4107 47.6366 58.4864C48.5171 58.8245 48.5362 59.6072 48.5525 60.1148V64.2342H46.8892V60.4821C46.8813 60.0744 46.8681 59.8437 46.7623 59.6628C46.7412 59.6161 46.5787 59.3293 46.1654 59.3293C46.0256 59.3293 45.7589 59.3631 45.6337 59.4319C45.176 59.6504 45.1586 60.0305 45.1507 60.3388V64.2341H43.5302V60.5061C43.5302 60.0631 43.5354 59.3292 42.7974 59.3292C42.6306 59.3292 42.3403 59.3764 42.1971 59.4556C41.79 59.7065 41.7788 60.0744 41.79 60.5865V64.2342H40.1554V58.4774Z" fill="#046148"/>
<path d="M53.3798 61.2346C53.3798 61.5614 53.3666 61.8753 53.3326 62.192C53.2983 62.5099 53.2426 63.1489 52.7531 63.4173C52.6122 63.4846 52.4639 63.5199 52.3117 63.5199C51.3847 63.5199 51.301 62.5474 51.2819 62.1919C51.2608 61.9269 51.2441 61.6675 51.2441 61.4097C51.2441 61.1794 51.26 60.8594 51.2935 60.4821C51.3268 60.1772 51.3945 59.5937 51.8662 59.318C52.0275 59.2365 52.1824 59.203 52.3626 59.203C53.2425 59.203 53.3223 60.1261 53.3431 60.4821C53.3668 60.7344 53.3798 60.9881 53.3798 61.2346ZM55.0467 61.2639C55.0467 60.7529 55.0467 59.7966 54.4784 59.1475C53.7928 58.3287 52.8112 58.3288 52.4636 58.3288C52.0605 58.3288 51.1334 58.3446 50.4056 59.0048C49.5825 59.7387 49.5825 60.9107 49.5825 61.5036C49.5825 62.6289 49.8363 63.8188 51.2597 64.2343C51.6741 64.3607 51.8942 64.3832 52.3115 64.3832C52.7017 64.3832 53.6777 64.3832 54.4026 63.5774C55.0467 62.8642 55.0467 61.7951 55.0467 61.2639Z" fill="#046148"/>
<path d="M26.6859 50.2443H41.8112L28.3964 46.1297L26.6859 47.0486L20.8807 48.5466L26.6859 50.2443Z" fill="#EF9826"/>
<path d="M14.04 44.374V50.2442H26.6879V47.0485L14.04 44.374Z" fill="#EB712D"/>
<path d="M41.8175 50.2443L26.6861 44.3741L26.6879 47.0485L41.8175 50.2443Z" fill="#FEC02B"/>
<path d="M93.96 61.2791V50.2405H73.5878L69.3534 53.2932L73.5878 56.9716L93.96 61.2791Z" fill="#EF9826"/>
<path d="M73.5878 56.9716L68.0499 52.1972L41.8193 50.2485L73.5877 61.2858L73.5878 56.9716Z" fill="#FEC02B"/>
<path d="M41.8126 50.2404V50.2457L73.5877 56.97V50.2418H41.8126V50.2404Z" fill="#EB712D"/>
</svg>
