<svg width="108" height="109" viewBox="0 0 108 109" fill="none" xmlns="http://www.w3.org/2000/svg">
<path d="M0 8.33399C0 3.91571 3.58172 0.333984 8 0.333984H100C104.418 0.333984 108 3.91571 108 8.33398V100.334C108 104.752 104.418 108.334 100 108.334H8C3.58172 108.334 0 104.752 0 100.334V8.33399Z" fill="white"/>
<path fill-rule="evenodd" clip-rule="evenodd" d="M72.8989 42.2303C71.3589 43.1514 67.7265 45.3033 66.3705 46.1046C65.5441 46.5395 63.6301 46.7294 62.5475 45.2216C62.5281 45.1944 61.1077 43.3611 61.0497 43.2921C61.009 43.2433 60.0907 41.8364 58.0445 41.7924C57.7421 41.785 56.239 41.7767 54.7724 42.6377C52.8229 43.7881 48.2891 46.4655 48.2891 46.4655C48.2891 46.4655 48.2878 46.4678 48.2855 46.4678C46.4218 47.5693 44.9697 48.4268 44.9697 48.4268L46.6854 50.6033C47.4879 51.6326 49.2978 52.429 50.8674 51.4983C50.8674 51.4983 56.6668 48.0294 56.6881 48.0194C59.1962 46.5985 61.1315 46.5985 62.416 47.1272C63.569 47.6305 64.572 48.8843 64.572 48.8843C64.572 48.8843 65.8829 50.5624 66.1142 50.8559C66.86 51.8042 68.0946 51.4316 68.0946 51.4316C68.0946 51.4316 68.5521 51.3781 69.2417 50.9552C69.2417 50.9552 74.8591 47.5908 74.8627 47.5897C76.6464 46.5088 78.2824 46.3069 79.1185 46.3864C81.7373 46.6323 82.5508 48.522 83.6863 49.8403C84.355 50.6157 84.9584 51.056 85.8811 51.0338C86.4874 51.0205 87.1724 50.6407 87.2734 50.5722L94.0002 46.5624C94.0002 46.5624 93.3099 45.4886 91.8964 43.818C90.6313 42.3274 89.2875 43.0018 88.2162 43.5499C87.7661 43.7798 86.1352 44.9004 84.5195 45.6822C83.3682 46.239 81.7145 46.0715 80.8082 44.9148C80.754 44.8445 79.2878 43.0109 79.1337 42.7853C78.5419 42.0197 77.3873 41.334 75.9075 41.334C75.0078 41.334 73.9868 41.5875 72.8989 42.2303Z" fill="url(#paint0_linear_485_495)"/>
<path fill-rule="evenodd" clip-rule="evenodd" d="M14.0843 57.9072C14.0843 56.71 14.0632 55.7052 14 54.8094H16.1942L16.2971 56.3485H16.3586C16.856 55.5352 17.7654 54.5733 19.4619 54.5733C20.786 54.5733 21.8203 55.3444 22.254 56.4979H22.2965C22.6488 55.921 23.0612 55.494 23.5366 55.1937C24.0957 54.7883 24.7372 54.5733 25.5647 54.5733C27.2398 54.5733 28.935 55.7484 28.935 59.0822V65.2141H26.453V59.4674C26.453 57.7369 25.8748 56.71 24.655 56.71C23.7847 56.71 23.1428 57.3521 22.8757 58.1004C22.8128 58.356 22.7509 58.6768 22.7509 58.9738V65.2141H20.2681V59.1887C20.2681 57.7369 19.7104 56.71 18.5311 56.71C17.5795 56.71 16.939 57.4804 16.7109 58.2053C16.6068 58.4634 16.565 58.7617 16.565 59.0602V65.2141H14.0843V57.9072Z" fill="#003A70"/>
<path fill-rule="evenodd" clip-rule="evenodd" d="M38.6052 62.7149C38.6052 63.6545 38.6465 64.5717 38.75 65.2146H36.4532L36.2883 64.0611H36.2255C35.6053 64.8738 34.5503 65.4497 33.2473 65.4497C31.2196 65.4497 30.0825 63.9339 30.0825 62.3519C30.0825 59.7229 32.3363 58.3994 36.06 58.4205V58.2489C36.06 57.5649 35.7908 56.4332 34.0121 56.4332C33.0187 56.4332 31.984 56.754 31.3018 57.2019L30.8047 55.494C31.5508 55.023 32.8551 54.5738 34.4466 54.5738C37.6749 54.5738 38.6052 56.6904 38.6052 58.9542V62.7149ZM36.122 60.1299C34.3227 60.0868 32.6062 60.4927 32.6062 62.074C32.6062 63.0986 33.2473 63.5696 34.0543 63.5696C35.0666 63.5696 35.8125 62.8856 36.0393 62.1381C36.1009 61.9458 36.122 61.7313 36.122 61.561V60.1299Z" fill="#003A70"/>
<path fill-rule="evenodd" clip-rule="evenodd" d="M40.3642 57.9072C40.3642 56.71 40.3415 55.7052 40.2812 54.8094H42.5133L42.6381 56.369H42.6993C43.1342 55.558 44.2304 54.5733 45.9056 54.5733C47.6645 54.5733 49.4847 55.7484 49.4847 59.0396V65.2141H46.9407V59.3394C46.9407 57.8428 46.4029 56.71 45.0168 56.71C44.0032 56.71 43.3001 57.458 43.0305 58.2489C42.9491 58.4845 42.9276 58.8057 42.9276 59.1027V65.2141H40.3642V57.9072Z" fill="#003A70"/>
<path fill-rule="evenodd" clip-rule="evenodd" d="M60.5156 50.6287V62.2864C60.5156 63.3545 60.5563 64.5103 60.5978 65.2146H58.3223L58.2204 63.5696H58.1783C57.5781 64.724 56.3557 65.4497 54.8887 65.4497C52.4902 65.4497 50.5865 63.3349 50.5865 60.1299C50.5654 56.6469 52.6753 54.5738 55.0953 54.5738C56.4808 54.5738 57.4746 55.1729 57.9289 55.9426H57.9708V50.6287H60.5156ZM57.9708 59.1454C57.9708 58.934 57.9495 58.6764 57.9097 58.4634C57.6818 57.4378 56.8746 56.604 55.7161 56.604C54.0821 56.604 53.1718 58.1004 53.1718 60.0448C53.1718 61.9458 54.0821 63.3349 55.6955 63.3349C56.7293 63.3349 57.6401 62.6087 57.888 61.4765C57.9495 61.2405 57.9708 60.9844 57.9708 60.7057V59.1454Z" fill="#003A70"/>
<path fill-rule="evenodd" clip-rule="evenodd" d="M62.3134 65.214H64.8809V54.81H62.3134V65.214Z" fill="#003A70"/>
<path fill-rule="evenodd" clip-rule="evenodd" d="M66.679 58.1635C66.679 56.7539 66.6575 55.7483 66.5957 54.8091H68.8095L68.8904 56.7955H68.9762C69.4719 55.3213 70.6512 54.8091 71.7264 54.8091C71.9741 54.8091 72.1187 54.7654 72.3262 54.8091V57.1174C72.1187 57.0747 71.8917 57.032 71.5813 57.032C70.3611 57.032 69.533 57.8431 69.3058 59.0175C69.2655 59.2527 69.2238 59.5316 69.2238 59.8322V65.2145H66.679V58.1635Z" fill="#003A70"/>
<path fill-rule="evenodd" clip-rule="evenodd" d="M73.5053 65.214H76.069V54.81H73.5053V65.214Z" fill="#003A70"/>
<defs>
<linearGradient id="paint0_linear_485_495" x1="0" y1="108.334" x2="108" y2="108.334" gradientUnits="userSpaceOnUse">
<stop stop-color="#FFCA06"/>
<stop offset="0.330844" stop-color="#FBAA18"/>
<stop offset="0.694742" stop-color="#FFC907"/>
<stop offset="1" stop-color="#FAA619"/>
</linearGradient>
</defs>
</svg>
