<svg width="1420" height="1421" viewBox="0 0 1420 1421" fill="none" xmlns="http://www.w3.org/2000/svg">
<rect x="0.5" y="0.833984" width="1419" height="1419" rx="19.5" fill="#F8FCFF"/>
<rect x="0.5" y="0.833984" width="1419" height="1419" rx="19.5" stroke="#0F3D56"/>
<path d="M838.333 478.334H581.667C567.491 478.334 556 489.825 556 504.001V760.667C556 774.843 567.491 786.334 581.667 786.334H838.333C852.509 786.334 864 774.843 864 760.667V504.001C864 489.825 852.509 478.334 838.333 478.334Z" stroke="#2492CD" stroke-width="20" stroke-linecap="round" stroke-linejoin="bevel" stroke-dasharray="60 60"/>
<path d="M710 564.334V700.334M642 632.334H778" stroke="#2492CD" stroke-width="20" stroke-linecap="round" stroke-linejoin="round"/>
<path d="M440.983 923.049H426.695L424.063 930.334H419.551L431.395 897.763H436.33L448.127 930.334H443.615L440.983 923.049ZM439.761 919.571L433.839 903.027L427.917 919.571H439.761ZM451.691 917.362C451.691 914.73 452.224 912.427 453.289 910.453C454.354 908.448 455.811 906.897 457.66 905.8C459.54 904.703 461.639 904.155 463.958 904.155C465.963 904.155 467.828 904.625 469.551 905.565C471.274 906.474 472.59 907.68 473.499 909.184V895.554H477.823V930.334H473.499V925.493C472.653 927.028 471.4 928.297 469.739 929.3C468.078 930.271 466.136 930.757 463.911 930.757C461.624 930.757 459.54 930.193 457.66 929.065C455.811 927.937 454.354 926.355 453.289 924.318C452.224 922.281 451.691 919.963 451.691 917.362ZM473.499 917.409C473.499 915.466 473.107 913.774 472.324 912.333C471.541 910.892 470.475 909.795 469.128 909.043C467.812 908.26 466.355 907.868 464.757 907.868C463.159 907.868 461.702 908.244 460.386 908.996C459.07 909.748 458.02 910.845 457.237 912.286C456.454 913.727 456.062 915.419 456.062 917.362C456.062 919.336 456.454 921.059 457.237 922.532C458.02 923.973 459.07 925.086 460.386 925.869C461.702 926.621 463.159 926.997 464.757 926.997C466.355 926.997 467.812 926.621 469.128 925.869C470.475 925.086 471.541 923.973 472.324 922.532C473.107 921.059 473.499 919.352 473.499 917.409ZM483.453 917.362C483.453 914.73 483.985 912.427 485.051 910.453C486.116 908.448 487.573 906.897 489.422 905.8C491.302 904.703 493.401 904.155 495.72 904.155C497.725 904.155 499.589 904.625 501.313 905.565C503.036 906.474 504.352 907.68 505.261 909.184V895.554H509.585V930.334H505.261V925.493C504.415 927.028 503.161 928.297 501.501 929.3C499.84 930.271 497.897 930.757 495.673 930.757C493.385 930.757 491.302 930.193 489.422 929.065C487.573 927.937 486.116 926.355 485.051 924.318C483.985 922.281 483.453 919.963 483.453 917.362ZM505.261 917.409C505.261 915.466 504.869 913.774 504.086 912.333C503.302 910.892 502.237 909.795 500.89 909.043C499.574 908.26 498.117 907.868 496.519 907.868C494.921 907.868 493.464 908.244 492.148 908.996C490.832 909.748 489.782 910.845 488.999 912.286C488.215 913.727 487.824 915.419 487.824 917.362C487.824 919.336 488.215 921.059 488.999 922.532C489.782 923.973 490.832 925.086 492.148 925.869C493.464 926.621 494.921 926.997 496.519 926.997C498.117 926.997 499.574 926.621 500.89 925.869C502.237 925.086 503.302 923.973 504.086 922.532C504.869 921.059 505.261 919.352 505.261 917.409ZM540.576 930.757C538.163 930.757 535.97 930.209 533.996 929.112C532.053 928.015 530.518 926.464 529.39 924.459C528.293 922.422 527.745 920.072 527.745 917.409C527.745 914.777 528.309 912.458 529.437 910.453C530.596 908.416 532.163 906.865 534.137 905.8C536.111 904.703 538.32 904.155 540.764 904.155C543.208 904.155 545.417 904.703 547.391 905.8C549.365 906.865 550.916 908.401 552.044 910.406C553.203 912.411 553.783 914.746 553.783 917.409C553.783 920.072 553.187 922.422 551.997 924.459C550.837 926.464 549.255 928.015 547.25 929.112C545.244 930.209 543.02 930.757 540.576 930.757ZM540.576 926.997C542.111 926.997 543.552 926.637 544.9 925.916C546.247 925.195 547.328 924.114 548.143 922.673C548.989 921.232 549.412 919.477 549.412 917.409C549.412 915.341 549.004 913.586 548.19 912.145C547.375 910.704 546.31 909.638 544.994 908.949C543.678 908.228 542.252 907.868 540.717 907.868C539.15 907.868 537.709 908.228 536.393 908.949C535.108 909.638 534.074 910.704 533.291 912.145C532.507 913.586 532.116 915.341 532.116 917.409C532.116 919.508 532.492 921.279 533.244 922.72C534.027 924.161 535.061 925.242 536.346 925.963C537.63 926.652 539.04 926.997 540.576 926.997ZM563.683 908.761C564.435 907.288 565.5 906.145 566.879 905.33C568.289 904.515 569.997 904.108 572.002 904.108V908.526H570.874C566.08 908.526 563.683 911.127 563.683 916.328V930.334H559.406V904.578H563.683V908.761ZM593.747 897.575V930.334H589.47V897.575H593.747ZM613.585 904.108C616.718 904.108 619.256 905.064 621.199 906.975C623.142 908.855 624.113 911.581 624.113 915.153V930.334H619.883V915.764C619.883 913.195 619.241 911.236 617.956 909.889C616.671 908.51 614.917 907.821 612.692 907.821C610.436 907.821 608.634 908.526 607.287 909.936C605.971 911.346 605.313 913.398 605.313 916.093V930.334H601.036V904.578H605.313V908.244C606.159 906.928 607.303 905.91 608.744 905.189C610.217 904.468 611.83 904.108 613.585 904.108ZM640.217 930.757C638.243 930.757 636.473 930.428 634.906 929.77C633.34 929.081 632.102 928.141 631.193 926.95C630.285 925.728 629.783 924.334 629.689 922.767H634.107C634.233 924.052 634.828 925.101 635.893 925.916C636.99 926.731 638.416 927.138 640.17 927.138C641.8 927.138 643.084 926.778 644.024 926.057C644.964 925.336 645.434 924.428 645.434 923.331C645.434 922.203 644.933 921.373 643.93 920.84C642.928 920.276 641.377 919.728 639.277 919.195C637.366 918.694 635.799 918.192 634.577 917.691C633.387 917.158 632.353 916.391 631.475 915.388C630.629 914.354 630.206 913.007 630.206 911.346C630.206 910.03 630.598 908.824 631.381 907.727C632.165 906.63 633.277 905.769 634.718 905.142C636.16 904.484 637.805 904.155 639.653 904.155C642.505 904.155 644.808 904.876 646.562 906.317C648.317 907.758 649.257 909.732 649.382 912.239H645.105C645.011 910.892 644.463 909.811 643.46 908.996C642.489 908.181 641.173 907.774 639.512 907.774C637.977 907.774 636.755 908.103 635.846 908.761C634.938 909.419 634.483 910.281 634.483 911.346C634.483 912.192 634.75 912.897 635.282 913.461C635.846 913.994 636.536 914.432 637.35 914.777C638.196 915.09 639.356 915.451 640.828 915.858C642.677 916.359 644.181 916.861 645.34 917.362C646.5 917.832 647.487 918.553 648.301 919.524C649.147 920.495 649.586 921.764 649.617 923.331C649.617 924.741 649.226 926.01 648.442 927.138C647.659 928.266 646.547 929.159 645.105 929.817C643.695 930.444 642.066 930.757 640.217 930.757ZM679.155 916.469C679.155 917.284 679.108 918.145 679.014 919.054H658.428C658.585 921.592 659.446 923.582 661.013 925.023C662.611 926.433 664.538 927.138 666.794 927.138C668.643 927.138 670.178 926.715 671.4 925.869C672.653 924.992 673.531 923.832 674.032 922.391H678.638C677.949 924.866 676.57 926.887 674.502 928.454C672.434 929.989 669.865 930.757 666.794 930.757C664.35 930.757 662.157 930.209 660.214 929.112C658.303 928.015 656.799 926.464 655.702 924.459C654.605 922.422 654.057 920.072 654.057 917.409C654.057 914.746 654.59 912.411 655.655 910.406C656.72 908.401 658.209 906.865 660.12 905.8C662.063 904.703 664.287 904.155 666.794 904.155C669.238 904.155 671.4 904.688 673.28 905.753C675.16 906.818 676.601 908.291 677.604 910.171C678.638 912.02 679.155 914.119 679.155 916.469ZM674.737 915.576C674.737 913.947 674.377 912.552 673.656 911.393C672.935 910.202 671.948 909.309 670.695 908.714C669.473 908.087 668.11 907.774 666.606 907.774C664.444 907.774 662.595 908.463 661.06 909.842C659.556 911.221 658.694 913.132 658.475 915.576H674.737ZM689.078 908.761C689.83 907.288 690.895 906.145 692.274 905.33C693.684 904.515 695.391 904.108 697.397 904.108V908.526H696.269C691.475 908.526 689.078 911.127 689.078 916.328V930.334H684.801V904.578H689.078V908.761ZM707.551 908.103V923.284C707.551 924.537 707.817 925.43 708.35 925.963C708.883 926.464 709.807 926.715 711.123 926.715H714.272V930.334H710.418C708.037 930.334 706.251 929.786 705.06 928.689C703.869 927.592 703.274 925.791 703.274 923.284V908.103H699.937V904.578H703.274V898.092H707.551V904.578H714.272V908.103H707.551ZM736.261 897.575V930.334H731.984V897.575H736.261ZM774.524 904.108C776.529 904.108 778.315 904.531 779.882 905.377C781.448 906.192 782.686 907.429 783.595 909.09C784.503 910.751 784.958 912.772 784.958 915.153V930.334H780.728V915.764C780.728 913.195 780.085 911.236 778.801 909.889C777.547 908.51 775.84 907.821 773.678 907.821C771.453 907.821 769.683 908.542 768.367 909.983C767.051 911.393 766.393 913.445 766.393 916.14V930.334H762.163V915.764C762.163 913.195 761.52 911.236 760.236 909.889C758.982 908.51 757.275 907.821 755.113 907.821C752.888 907.821 751.118 908.542 749.802 909.983C748.486 911.393 747.828 913.445 747.828 916.14V930.334H743.551V904.578H747.828V908.291C748.674 906.944 749.802 905.91 751.212 905.189C752.653 904.468 754.235 904.108 755.959 904.108C758.121 904.108 760.032 904.594 761.693 905.565C763.353 906.536 764.591 907.962 765.406 909.842C766.126 908.025 767.317 906.615 768.978 905.612C770.638 904.609 772.487 904.108 774.524 904.108ZM790.375 917.362C790.375 914.73 790.908 912.427 791.973 910.453C793.039 908.448 794.496 906.897 796.344 905.8C798.224 904.703 800.308 904.155 802.595 904.155C804.851 904.155 806.81 904.641 808.47 905.612C810.131 906.583 811.369 907.805 812.183 909.278V904.578H816.507V930.334H812.183V925.54C811.337 927.044 810.068 928.297 808.376 929.3C806.716 930.271 804.773 930.757 802.548 930.757C800.261 930.757 798.193 930.193 796.344 929.065C794.496 927.937 793.039 926.355 791.973 924.318C790.908 922.281 790.375 919.963 790.375 917.362ZM812.183 917.409C812.183 915.466 811.792 913.774 811.008 912.333C810.225 910.892 809.16 909.795 807.812 909.043C806.496 908.26 805.039 907.868 803.441 907.868C801.843 907.868 800.386 908.244 799.07 908.996C797.754 909.748 796.705 910.845 795.921 912.286C795.138 913.727 794.746 915.419 794.746 917.362C794.746 919.336 795.138 921.059 795.921 922.532C796.705 923.973 797.754 925.086 799.07 925.869C800.386 926.621 801.843 926.997 803.441 926.997C805.039 926.997 806.496 926.621 807.812 925.869C809.16 925.086 810.225 923.973 811.008 922.532C811.792 921.059 812.183 919.352 812.183 917.409ZM834.357 904.155C836.582 904.155 838.525 904.641 840.185 905.612C841.877 906.583 843.131 907.805 843.945 909.278V904.578H848.269V930.898C848.269 933.248 847.768 935.332 846.765 937.149C845.763 938.998 844.321 940.439 842.441 941.473C840.593 942.507 838.431 943.024 835.955 943.024C832.571 943.024 829.751 942.225 827.495 940.627C825.239 939.029 823.908 936.851 823.5 934.094H827.73C828.2 935.661 829.172 936.914 830.644 937.854C832.117 938.825 833.887 939.311 835.955 939.311C838.305 939.311 840.217 938.575 841.689 937.102C843.193 935.629 843.945 933.561 843.945 930.898V925.493C843.099 926.997 841.846 928.25 840.185 929.253C838.525 930.256 836.582 930.757 834.357 930.757C832.07 930.757 829.986 930.193 828.106 929.065C826.258 927.937 824.801 926.355 823.735 924.318C822.67 922.281 822.137 919.963 822.137 917.362C822.137 914.73 822.67 912.427 823.735 910.453C824.801 908.448 826.258 906.897 828.106 905.8C829.986 904.703 832.07 904.155 834.357 904.155ZM843.945 917.409C843.945 915.466 843.554 913.774 842.77 912.333C841.987 910.892 840.922 909.795 839.574 909.043C838.258 908.26 836.801 907.868 835.203 907.868C833.605 907.868 832.148 908.244 830.832 908.996C829.516 909.748 828.467 910.845 827.683 912.286C826.9 913.727 826.508 915.419 826.508 917.362C826.508 919.336 826.9 921.059 827.683 922.532C828.467 923.973 829.516 925.086 830.832 925.869C832.148 926.621 833.605 926.997 835.203 926.997C836.801 926.997 838.258 926.621 839.574 925.869C840.922 925.086 841.987 923.973 842.77 922.532C843.554 921.059 843.945 919.352 843.945 917.409ZM878.997 916.469C878.997 917.284 878.95 918.145 878.856 919.054H858.27C858.427 921.592 859.288 923.582 860.855 925.023C862.453 926.433 864.38 927.138 866.636 927.138C868.485 927.138 870.02 926.715 871.242 925.869C872.495 924.992 873.373 923.832 873.874 922.391H878.48C877.791 924.866 876.412 926.887 874.344 928.454C872.276 929.989 869.707 930.757 866.636 930.757C864.192 930.757 861.999 930.209 860.056 929.112C858.145 928.015 856.641 926.464 855.544 924.459C854.447 922.422 853.899 920.072 853.899 917.409C853.899 914.746 854.432 912.411 855.497 910.406C856.562 908.401 858.051 906.865 859.962 905.8C861.905 904.703 864.129 904.155 866.636 904.155C869.08 904.155 871.242 904.688 873.122 905.753C875.002 906.818 876.443 908.291 877.446 910.171C878.48 912.02 878.997 914.119 878.997 916.469ZM874.579 915.576C874.579 913.947 874.219 912.552 873.498 911.393C872.777 910.202 871.79 909.309 870.537 908.714C869.315 908.087 867.952 907.774 866.448 907.774C864.286 907.774 862.437 908.463 860.902 909.842C859.398 911.221 858.536 913.132 858.317 915.576H874.579ZM922.412 897.575V930.334H918.135V915.482H901.45V930.334H897.173V897.575H901.45V911.957H918.135V897.575H922.412ZM953.215 916.469C953.215 917.284 953.168 918.145 953.074 919.054H932.488C932.644 921.592 933.506 923.582 935.073 925.023C936.671 926.433 938.598 927.138 940.854 927.138C942.702 927.138 944.238 926.715 945.46 925.869C946.713 924.992 947.59 923.832 948.092 922.391H952.698C952.008 924.866 950.63 926.887 948.562 928.454C946.494 929.989 943.924 930.757 940.854 930.757C938.41 930.757 936.216 930.209 934.274 929.112C932.362 928.015 930.858 926.464 929.762 924.459C928.665 922.422 928.117 920.072 928.117 917.409C928.117 914.746 928.649 912.411 929.715 910.406C930.78 908.401 932.268 906.865 934.18 905.8C936.122 904.703 938.347 904.155 940.854 904.155C943.298 904.155 945.46 904.688 947.34 905.753C949.22 906.818 950.661 908.291 951.664 910.171C952.698 912.02 953.215 914.119 953.215 916.469ZM948.797 915.576C948.797 913.947 948.436 912.552 947.716 911.393C946.995 910.202 946.008 909.309 944.755 908.714C943.533 908.087 942.17 907.774 940.666 907.774C938.504 907.774 936.655 908.463 935.12 909.842C933.616 911.221 932.754 913.132 932.535 915.576H948.797ZM963.137 908.761C963.889 907.288 964.955 906.145 966.333 905.33C967.743 904.515 969.451 904.108 971.456 904.108V908.526H970.328C965.534 908.526 963.137 911.127 963.137 916.328V930.334H958.86V904.578H963.137V908.761ZM999.893 916.469C999.893 917.284 999.846 918.145 999.752 919.054H979.166C979.323 921.592 980.185 923.582 981.751 925.023C983.349 926.433 985.276 927.138 987.532 927.138C989.381 927.138 990.916 926.715 992.138 925.869C993.392 924.992 994.269 923.832 994.77 922.391H999.376C998.687 924.866 997.308 926.887 995.24 928.454C993.172 929.989 990.603 930.757 987.532 930.757C985.088 930.757 982.895 930.209 980.952 929.112C979.041 928.015 977.537 926.464 976.44 924.459C975.344 922.422 974.795 920.072 974.795 917.409C974.795 914.746 975.328 912.411 976.393 910.406C977.459 908.401 978.947 906.865 980.858 905.8C982.801 904.703 985.026 904.155 987.532 904.155C989.976 904.155 992.138 904.688 994.018 905.753C995.898 906.818 997.34 908.291 998.342 910.171C999.376 912.02 999.893 914.119 999.893 916.469ZM995.475 915.576C995.475 913.947 995.115 912.552 994.394 911.393C993.674 910.202 992.687 909.309 991.433 908.714C990.211 908.087 988.848 907.774 987.344 907.774C985.182 907.774 983.334 908.463 981.798 909.842C980.294 911.221 979.433 913.132 979.213 915.576H995.475Z" fill="#2492CD"/>
</svg>
