<svg width="80" height="86" viewBox="0 0 80 86" fill="none" xmlns="http://www.w3.org/2000/svg">
<path fill-rule="evenodd" clip-rule="evenodd" d="M39.9301 0.85363C39.9236 0.855749 39.9172 0.85791 39.9107 0.860112C39.8999 0.860004 39.8891 0.860004 39.8783 0.860112C39.6878 0.873747 39.5013 0.920927 39.3273 0.999475L1.86782 17.0197C1.48319 17.0805 1.13327 17.2776 0.882117 17.5752C0.630961 17.8728 0.495359 18.2509 0.500121 18.6402V67.2617C0.498225 67.4927 0.54574 67.7215 0.639483 67.9326C0.641603 67.9391 0.643765 67.9456 0.645967 67.952C0.659133 67.9816 0.673184 68.0108 0.6881 68.0396C0.862236 68.3893 1.15689 68.6644 1.5178 68.8142L39.0064 84.8409C39.3263 85.0714 39.7192 85.1774 40.1116 85.1391C40.3955 85.1241 40.6705 85.0347 40.9089 84.8798L78.4851 68.8142C78.7487 68.7069 78.9795 68.5322 79.1542 68.3074C79.3288 68.0827 79.4412 67.8159 79.48 67.534C79.4852 67.5049 79.4895 67.4757 79.493 67.4465C79.4958 67.4206 79.498 67.3947 79.4995 67.3687C79.5002 67.3417 79.5002 67.3147 79.4995 67.2876C79.4996 67.279 79.4996 67.2704 79.4995 67.2617V18.6402C79.5037 18.2558 79.371 17.8823 79.1252 17.5866C78.8794 17.291 78.5365 17.0923 78.1577 17.0262L40.6691 0.999475C40.6361 0.983215 40.6026 0.968081 40.5686 0.9541C40.5643 0.95192 40.56 0.94976 40.5556 0.947619C40.5076 0.933488 40.4589 0.921591 40.4098 0.911967C40.3937 0.907395 40.3775 0.903073 40.3612 0.899003C40.3248 0.88908 40.288 0.880432 40.251 0.873076C40.2348 0.87067 40.2186 0.868509 40.2024 0.866594C40.1668 0.863254 40.1311 0.861093 40.0954 0.860112C40.0405 0.855139 39.9853 0.852975 39.9301 0.85363ZM39.9982 4.24047L47.9419 7.6338L14.2744 22.0336C14.2415 22.0476 14.209 22.0627 14.1771 22.0789L6.23021 18.6791L40.0014 4.24047H39.9982ZM52.0644 9.40015L61.7032 13.5195L27.4069 28.1882C27.09 28.3244 26.8249 28.5581 26.65 28.8554C26.4751 29.1527 26.3997 29.498 26.4346 29.8411C26.4288 29.9036 26.4266 29.9664 26.4281 30.0291V47.3685L22.9149 42.0954C22.6959 41.7671 22.3647 41.5301 21.9835 41.4287C21.6022 41.3272 21.197 41.3684 20.8439 41.5444L16.7051 43.6121V24.5227L52.0644 9.40015ZM65.8257 15.2793L73.7759 18.6791L40.0014 33.1178L32.0577 29.7245L65.7317 15.3247C65.7646 15.3106 65.7971 15.2955 65.829 15.2793H65.8257ZM3.74112 21.1358L13.4641 25.294V46.2341C13.4641 46.5105 13.5348 46.7822 13.6694 47.0235C13.8041 47.2649 13.9982 47.4678 14.2333 47.6129C14.4684 47.7581 14.7368 47.8407 15.0129 47.853C15.2889 47.8652 15.5635 47.8066 15.8106 47.6828L21.0092 45.0803L26.6096 53.481C26.7874 53.8235 27.0817 54.0912 27.4393 54.2361C27.4871 54.2546 27.5358 54.2709 27.5852 54.2848C27.5873 54.2869 27.5895 54.2891 27.5916 54.2912C27.6953 54.3212 27.8017 54.3408 27.9093 54.3496C27.9631 54.3544 28.0172 54.3566 28.0713 54.3561C28.1254 54.3566 28.1795 54.3544 28.2334 54.3496C28.2879 54.3415 28.342 54.3307 28.3954 54.3172C28.4281 54.3095 28.4605 54.3009 28.4926 54.2912C28.5111 54.2872 28.5294 54.2829 28.5477 54.2783C28.9102 54.1643 29.221 53.9266 29.426 53.6067C29.631 53.2868 29.717 52.905 29.6691 52.5281V32.233L38.3777 35.9537V81.0489L3.74112 66.2376V21.1358ZM76.2585 21.1423V66.2376L41.6187 81.0554V35.9537L76.2585 21.1423ZM55.9147 58.3879C55.9082 58.39 55.9018 58.3921 55.8953 58.3943C55.6939 58.4041 55.496 58.4514 55.3119 58.5337L45.8644 62.572C45.469 62.7405 45.1567 63.0591 44.9963 63.4578C44.8358 63.8566 44.8403 64.3027 45.0088 64.6981C45.1772 65.0935 45.4959 65.4058 45.8946 65.5662C46.2933 65.7267 46.7395 65.7222 47.1349 65.5537L56.5921 61.5154C56.951 61.3752 57.2482 61.1118 57.4304 60.7723C57.6126 60.4328 57.6679 60.0395 57.5863 59.663C57.5048 59.2864 57.2917 58.9512 56.9854 58.7175C56.679 58.4839 56.2995 58.367 55.9147 58.3879ZM65.346 60.8186C65.1479 60.8296 64.9535 60.8768 64.7724 60.958L55.3152 64.9963L45.8644 69.041C45.469 69.2095 45.1567 69.5282 44.9963 69.9269C44.8358 70.3256 44.8403 70.7717 45.0088 71.1671C45.1772 71.5625 45.4959 71.8748 45.8946 72.0353C46.2933 72.1957 46.7395 72.1912 47.1349 72.0228L56.5921 67.978L66.0429 63.9332C66.3944 63.7867 66.6832 63.521 66.8583 63.1827C67.0335 62.8445 67.084 62.4554 67.0008 62.0837C66.9176 61.7119 66.7062 61.3814 66.4036 61.1501C66.101 60.9187 65.7266 60.8014 65.346 60.8186Z" fill="white"/>
</svg>
