<svg width="80" height="88" viewBox="0 0 80 88" fill="none" xmlns="http://www.w3.org/2000/svg">
<g clip-path="url(#clip0_858_37033)">
<path d="M75.7969 10.1406H4.20312C3.221 10.1406 2.27909 10.5687 1.58462 11.3307C0.89015 12.0927 0.5 13.1262 0.5 14.2038L0.5 60.2528C0.5 61.3304 0.89015 62.3639 1.58462 63.1259C2.27909 63.8879 3.221 64.316 4.20312 64.316H4.82031V67.0247C4.82031 68.1024 5.21046 69.1358 5.90493 69.8978C6.5994 70.6598 7.54131 71.0879 8.52344 71.0879H9.14062V73.7967C9.14062 74.8743 9.53078 75.9078 10.2252 76.6697C10.9197 77.4317 11.8616 77.8598 12.8438 77.8598H67.1562C68.1384 77.8598 69.0803 77.4317 69.7747 76.6697C70.4692 75.9078 70.8594 74.8743 70.8594 73.7967V71.0879H71.4766C72.4587 71.0879 73.4006 70.6598 74.0951 69.8978C74.7895 69.1358 75.1797 68.1024 75.1797 67.0247V64.316H75.7969C76.779 64.316 77.7209 63.8879 78.4154 63.1259C79.1098 62.3639 79.5 61.3304 79.5 60.2528V14.2038C79.5 13.1262 79.1098 12.0927 78.4154 11.3307C77.7209 10.5687 76.779 10.1406 75.7969 10.1406ZM68.3906 73.7967C68.3906 74.1559 68.2606 74.5004 68.0291 74.7544C67.7976 75.0084 67.4836 75.151 67.1562 75.151H12.8438C12.5164 75.151 12.2024 75.0084 11.9709 74.7544C11.7394 74.5004 11.6094 74.1559 11.6094 73.7967V71.0879H68.3906V73.7967ZM72.7109 67.0247C72.7109 67.3839 72.5809 67.7284 72.3494 67.9824C72.1179 68.2364 71.8039 68.3791 71.4766 68.3791H8.52344C8.19606 68.3791 7.88209 68.2364 7.6506 67.9824C7.41911 67.7284 7.28906 67.3839 7.28906 67.0247V64.316H72.7109V67.0247ZM77.0312 60.2528C77.0312 60.612 76.9012 60.9565 76.6697 61.2105C76.4382 61.4645 76.1243 61.6072 75.7969 61.6072H4.20312C3.87575 61.6072 3.56178 61.4645 3.33029 61.2105C3.0988 60.9565 2.96875 60.612 2.96875 60.2528V14.2038C2.96875 13.8446 3.0988 13.5001 3.33029 13.2461C3.56178 12.9921 3.87575 12.8494 4.20312 12.8494H75.7969C76.1243 12.8494 76.4382 12.9921 76.6697 13.2461C76.9012 13.5001 77.0312 13.8446 77.0312 14.2038V60.2528Z" fill="white"/>
<path d="M69.625 29.1018C67.6607 29.1018 65.7769 28.2456 64.388 26.7216C62.999 25.1977 62.2188 23.1307 62.2188 20.9755C62.2188 20.6163 62.0887 20.2718 61.8572 20.0178C61.6257 19.7638 61.3118 19.6211 60.9844 19.6211H19.0156C18.6882 19.6211 18.3743 19.7638 18.1428 20.0178C17.9113 20.2718 17.7812 20.6163 17.7812 20.9755C17.7812 23.1307 17.001 25.1977 15.612 26.7216C14.2231 28.2456 12.3393 29.1018 10.375 29.1018C10.0476 29.1018 9.73366 29.2445 9.50217 29.4985C9.27068 29.7525 9.14062 30.097 9.14062 30.4562V44C9.14062 44.3592 9.27068 44.7037 9.50217 44.9577C9.73366 45.2117 10.0476 45.3544 10.375 45.3544C12.3393 45.3544 14.2231 46.2105 15.612 47.7345C17.001 49.2585 17.7812 51.3255 17.7812 53.4807C17.7812 53.8399 17.9113 54.1844 18.1428 54.4384C18.3743 54.6924 18.6882 54.8351 19.0156 54.8351H60.9844C61.3118 54.8351 61.6257 54.6924 61.8572 54.4384C62.0887 54.1844 62.2188 53.8399 62.2188 53.4807C62.2188 51.3255 62.999 49.2585 64.388 47.7345C65.7769 46.2105 67.6607 45.3544 69.625 45.3544C69.9524 45.3544 70.2663 45.2117 70.4978 44.9577C70.7293 44.7037 70.8594 44.3592 70.8594 44V30.4562C70.8594 30.097 70.7293 29.7525 70.4978 29.4985C70.2663 29.2445 69.9524 29.1018 69.625 29.1018ZM68.3906 42.7269C66.214 43.027 64.1905 44.1138 62.6393 45.8158C61.0881 47.5178 60.0976 49.7381 59.8241 52.1263H20.1759C19.9024 49.7381 18.9119 47.5178 17.3607 45.8158C15.8095 44.1138 13.786 43.027 11.6094 42.7269V31.7293C13.786 31.4291 15.8095 30.3423 17.3607 28.6403C18.9119 26.9383 19.9024 24.7181 20.1759 22.3299H59.8241C60.0976 24.7181 61.0881 26.9383 62.6393 28.6403C64.1905 30.3423 66.214 31.4291 68.3906 31.7293V42.7269Z" fill="white"/>
<path d="M40 25.0391C37.8028 25.0391 35.6549 25.754 33.828 27.0934C32.001 28.4327 30.5771 30.3365 29.7363 32.5638C28.8954 34.7911 28.6754 37.242 29.1041 39.6066C29.5328 41.9711 30.5908 44.143 32.1445 45.8478C33.6982 47.5525 35.6777 48.7134 37.8327 49.1838C39.9877 49.6541 42.2214 49.4127 44.2514 48.4901C46.2814 47.5675 48.0164 46.0052 49.2371 44.0006C50.4578 41.9961 51.1094 39.6394 51.1094 37.2285C51.1094 33.9957 49.9389 30.8952 47.8555 28.6093C45.7721 26.3233 42.9464 25.0391 40 25.0391ZM40 46.7092C38.2911 46.7092 36.6205 46.1532 35.1995 45.1114C33.7786 44.0697 32.6711 42.589 32.0171 40.8566C31.3631 39.1242 31.192 37.218 31.5254 35.3789C31.8588 33.5399 32.6817 31.8506 33.8902 30.5247C35.0986 29.1988 36.6382 28.2958 38.3143 27.93C39.9904 27.5642 41.7278 27.7519 43.3066 28.4695C44.8855 29.1871 46.235 30.4022 47.1844 31.9613C48.1339 33.5204 48.6406 35.3534 48.6406 37.2285C48.6406 39.7429 47.7303 42.1544 46.1099 43.9324C44.4894 45.7103 42.2916 46.7092 40 46.7092Z" fill="white"/>
</g>
<defs>
<clipPath id="clip0_858_37033">
<rect width="79" height="86.6806" fill="white" transform="translate(0.5 0.660156)"/>
</clipPath>
</defs>
</svg>
