<svg width="35" height="36" viewBox="0 0 35 36" fill="none" xmlns="http://www.w3.org/2000/svg">
<path d="M34.524 30.7597L27.7081 23.945C27.4004 23.6374 26.9834 23.4665 26.5459 23.4665H25.4315C27.3184 21.0537 28.4396 18.0188 28.4396 14.7174C28.4396 6.86364 22.0749 0.5 14.2198 0.5C6.36472 0.5 0 6.86364 0 14.7174C0 22.5711 6.36472 28.9347 14.2198 28.9347C17.5218 28.9347 20.5572 27.8137 22.9704 25.9272V27.0414C22.9704 27.4788 23.1413 27.8958 23.449 28.2033L30.2649 35.0181C30.9075 35.6606 31.9467 35.6606 32.5825 35.0181L34.5172 33.0837C35.1598 32.4412 35.1598 31.4023 34.524 30.7597ZM14.2198 23.4665C9.38643 23.4665 5.46915 19.5567 5.46915 14.7174C5.46915 9.88483 9.37959 5.96822 14.2198 5.96822C19.0532 5.96822 22.9704 9.87799 22.9704 14.7174C22.9704 19.5499 19.06 23.4665 14.2198 23.4665Z" fill="white"/>
</svg>
