<svg width="46" height="40" viewBox="0 0 46 40" fill="none" xmlns="http://www.w3.org/2000/svg">
<path d="M45.4759 19.5753C45.4759 18.5974 45.0874 17.6594 44.3959 16.9679C43.7043 16.2763 42.7664 15.8878 41.7884 15.8878L12.5834 15.8878L22.2693 6.202C22.9206 5.50298 23.2752 4.57842 23.2584 3.62311C23.2415 2.66779 22.8545 1.75632 22.1789 1.0807C21.5033 0.405086 20.5918 0.0180808 19.6365 0.00122747C18.6812 -0.0156296 17.7566 0.338981 17.0576 0.99034L1.07842 16.9695C0.387873 17.6609 -9.06392e-07 18.5981 -8.63678e-07 19.5753C-8.20964e-07 20.5525 0.387873 21.4898 1.07842 22.1812L17.0576 38.1603C17.3952 38.5226 17.8023 38.8132 18.2546 39.0148C18.7069 39.2163 19.1952 39.3247 19.6904 39.3334C20.1855 39.3421 20.6773 39.2511 21.1364 39.0656C21.5956 38.8801 22.0127 38.6041 22.3629 38.2539C22.713 37.9038 22.9891 37.4867 23.1745 37.0275C23.36 36.5684 23.4511 36.0766 23.4423 35.5814C23.4336 35.0863 23.3252 34.598 23.1237 34.1457C22.9221 33.6934 22.6316 33.2863 22.2693 32.9487L12.5834 23.2628L41.7884 23.2628C43.8239 23.2628 45.4759 21.6108 45.4759 19.5753Z" fill="#0F3D56"/>
</svg>
