<svg width="58" height="60" viewBox="0 0 58 60" fill="none" xmlns="http://www.w3.org/2000/svg">
<path d="M51.4759 29.5753C51.4759 28.5974 51.0874 27.6594 50.3959 26.9679C49.7043 26.2763 48.7664 25.8878 47.7884 25.8878L18.5834 25.8878L28.2693 16.202C28.9206 15.503 29.2752 14.5784 29.2584 13.6231C29.2415 12.6678 28.8545 11.7563 28.1789 11.0807C27.5033 10.4051 26.5918 10.0181 25.6365 10.0012C24.6812 9.98437 23.7566 10.339 23.0576 10.9903L7.07842 26.9695C6.38787 27.6609 6 28.5981 6 29.5753C6 30.5525 6.38787 31.4898 7.07842 32.1812L23.0576 48.1603C23.3952 48.5226 23.8023 48.8132 24.2546 49.0148C24.7069 49.2163 25.1952 49.3247 25.6904 49.3334C26.1855 49.3421 26.6773 49.2511 27.1364 49.0656C27.5956 48.8801 28.0127 48.6041 28.3629 48.2539C28.713 47.9038 28.9891 47.4867 29.1745 47.0275C29.36 46.5684 29.4511 46.0766 29.4423 45.5814C29.4336 45.0863 29.3252 44.598 29.1237 44.1457C28.9221 43.6934 28.6316 43.2863 28.2693 42.9487L18.5834 33.2628L47.7884 33.2628C49.8239 33.2628 51.4759 31.6108 51.4759 29.5753Z" fill="#0F3D56"/>
</svg>
